<svg width="61" height="65" viewBox="0 0 61 65" fill="none" xmlns="http://www.w3.org/2000/svg">
<path d="M12.427 39.4449L4.8041 40.916C4.8041 40.916 2.16602 40.0656 1.0275 36.1703C-0.0793545 32.381 1.59438 29.8459 1.59438 29.8459L8.69312 27.2775L8.79763 27.6195C8.79763 27.6195 7.55935 30.237 8.53953 33.6731C9.67963 37.6667 12.3288 39.1251 12.3288 39.1251L12.427 39.4465V39.4449Z" fill="#FFC727"/>
<path opacity="0.1" d="M8.6947 27.2773C8.6947 27.2773 6.97821 30.1133 8.43343 34.3618C9.85222 38.4994 12.427 39.4432 12.427 39.4432L12.3288 39.1217C12.3288 39.1217 9.67804 37.6633 8.53952 33.6698C7.57518 30.2859 8.75962 27.6985 8.79763 27.6193L8.69312 27.2757L8.6947 27.2773Z" fill="black"/>
<path d="M29.6806 61.3268L31.5063 59.7038C31.5063 59.7038 27.5397 51.3462 26.6973 49.0929C25.8549 46.8396 24.957 37.1059 24.957 37.1059L23.2912 37.1534L20.9413 47.6614L29.6806 61.3268Z" fill="#FFC727"/>
<path opacity="0.1" d="M29.6806 61.3268L31.5063 59.7038C31.5063 59.7038 27.5397 51.3462 26.6973 49.0929C25.8549 46.8396 24.957 37.1059 24.957 37.1059L23.2912 37.1534L20.9413 47.6614L29.6806 61.3268Z" fill="black"/>
<path d="M14.305 38.3774C14.305 38.3774 13.6035 48.309 14.305 52.4134C15.0065 56.5178 17.6746 63.7495 17.6746 63.7495L29.6806 61.3268C29.6806 61.3268 25.9309 52.9043 25.117 50.6193C23.3625 45.6947 23.2912 37.1534 23.2912 37.1534L14.305 38.3774Z" fill="#FFC727"/>
<path d="M17.0349 64.47L29.6806 61.3268L31.5064 59.7037L28.1051 51.5979L27.6965 51.4522L25.8375 52.434L15.0192 55.5424L14.9416 55.1465L14.4887 56.0823L17.0349 64.47Z" fill="#37474F"/>
<path d="M14.4887 56.0823L26.0814 52.7586L28.1051 51.5979L27.6965 51.4522L25.8375 52.434L15.0192 55.5424L14.9416 55.1465L14.4887 56.0823Z" fill="#455A64"/>
<path d="M26.0814 52.7586L29.6806 61.3268L31.5064 59.7038L28.105 51.5979L26.0814 52.7586Z" fill="#263238"/>
<path opacity="0.15" d="M25.3118 40.5421L23.467 40.5864L14.0754 42.8571C14.1672 40.3267 14.305 38.3759 14.305 38.3759L23.2912 37.1534L24.9571 37.1059C24.9571 37.1059 25.0948 38.5944 25.3118 40.5421Z" fill="black"/>
<path d="M42.8583 2.44198C42.8583 2.44198 35.3747 13.2366 23.9974 19.903C17.0539 23.9726 12.0659 25.7318 11.5545 25.9012C11.5545 25.9012 8.46667 27.5481 9.83479 33.6254C11.6985 39.5698 15.1965 39.4463 15.1965 39.4463C15.7238 39.3371 20.9207 38.3569 28.9696 38.3949C42.1568 38.4566 54.044 44.0416 54.044 44.0416C54.0535 44.0242 54.0646 44.0067 54.0741 43.9877C51.6719 43.1406 48.8454 39.0299 46.4734 33.1361C46.3213 32.7577 46.1709 32.3713 46.0236 31.977C45.1622 29.6968 44.3721 27.1934 43.6959 24.5189C42.9406 21.8665 42.3674 19.3045 41.9699 16.8991C41.9003 16.4843 41.8353 16.0757 41.7767 15.6704C40.8726 9.38237 41.2574 4.40866 42.9105 2.47048C42.8931 2.4594 42.8757 2.4499 42.8583 2.43881V2.44198Z" fill="#FFC727"/>
<path d="M42.8583 2.4404C42.8583 2.4404 35.3747 13.235 23.9974 19.9014C17.0539 23.971 12.0659 25.7302 11.5545 25.8981C11.5545 25.8981 9.12698 27.1934 9.53235 31.7253C9.53552 31.7823 9.54343 31.8377 9.54818 31.8931C9.60361 32.4268 9.69703 33.0016 9.83638 33.6223C11.7001 39.5667 15.198 39.4432 15.198 39.4432C15.7269 39.3339 20.9239 38.3553 28.9711 38.3933C42.1568 38.4535 54.0456 44.04 54.0456 44.04L54.0756 43.9877C51.6735 43.1406 48.847 39.0299 46.4749 33.1362C46.3229 32.7577 46.1725 32.3698 46.0252 31.977C45.1638 29.6984 44.3737 27.1934 43.6975 24.5189C43.3966 23.4627 43.1243 22.4192 42.8804 21.3962C42.8804 21.3867 42.8773 21.3772 42.8741 21.3661C42.806 21.0795 42.7395 20.7945 42.6762 20.5111C42.5146 19.7858 42.3658 19.0701 42.2328 18.3655C42.1378 17.8714 42.0523 17.3805 41.9715 16.8976C41.9018 16.4843 41.8369 16.0742 41.7799 15.6704C41.7134 15.2048 41.6532 14.7456 41.601 14.2959C41.5566 13.9159 41.5171 13.5438 41.4822 13.1764C41.4648 12.9832 41.4474 12.79 41.4331 12.6016C41.0436 7.78781 41.5408 4.08247 42.9153 2.47207C42.8979 2.46257 42.8804 2.4499 42.863 2.4404H42.8583Z" fill="#FFC727"/>
<path opacity="0.3" d="M40.6651 10.4686L40.4593 10.5304L40.4625 10.5446L42.1489 18.1469L39.5741 11.159L39.0056 11.3221L40.331 17.9965L38.2947 12.1059L37.4538 12.3324L39.0056 20.7945L36.6257 14.5033L35.5236 14.8216L36.7239 21.0225L34.8173 15.8097L33.5474 16.1549L34.5339 21.7319L33.0914 18.4114L31.7707 18.7898L32.2458 22.028L30.8634 18.9957L29.5238 19.4295L30.3598 23.5925L28.542 19.7066L27.2293 20.0708L27.7503 24.9686L26.3156 21.9726L25.0821 22.3637L25.782 26.4L24.246 23.5846L23.1012 23.9599L23.3039 25.4293L22.4836 23.6194L21.3863 23.9456L21.8756 26.9447L20.8637 25.5339L19.8867 25.9535L20.0736 26.8861L19.5621 25.9883L18.6088 26.3003L18.8701 28.4031L17.6793 26.1087L16.8243 26.3652L17.0095 27.9882L16.1164 26.2923L15.3437 26.5267L15.7158 29.6952L14.7024 27.2947L14.088 27.4166L14.1181 30.1291L13.4768 28.9146L12.9669 29.0713L13.187 30.7657L12.3462 29.0413L11.9709 29.122L11.9519 32.2953L10.2655 29.5812L10.0786 29.6287L9.97413 32.422L9.52917 31.7348C9.53234 31.7918 9.54026 31.8472 9.54501 31.9026L9.97572 32.6025L10.066 32.5803L10.2592 29.9676L11.9709 32.9145L12.2591 32.8369L12.3414 29.9803L13.3976 32.2937L13.8521 32.1639L13.6668 30.4822L14.1656 31.4561L14.7119 31.3215L14.7214 29.0571L16.042 32.3571L16.7467 32.1781L16.3841 28.6153L17.3183 30.4395L18.1338 30.1925L17.9818 28.7293L19.2581 31.2629L20.1749 30.9842L19.9152 28.7198L20.7766 30.259L21.7568 29.8963L21.4338 28.2258L22.3554 29.5274L23.3593 29.1157L23.1978 28.0817L23.9167 29.6984L25.0584 29.3722L24.7575 27.1268L26.5057 30.3714L27.6838 29.9628L27.1533 26.8149L28.2253 29.0872L29.5032 28.7293L29.0202 24.0311L31.5601 29.5036L32.8918 29.0682L32.1017 25.1111L33.0201 27.1158L34.3518 26.7215L33.9116 23.773L35.5885 27.6193L36.8917 27.225L36.1728 23.2584L38.2345 28.7958L39.4332 28.4585L37.9558 21.0954L40.0555 26.4855L41.0404 26.2068L39.4094 17.8239L41.4046 23.3977L42.1219 23.1982L40.3579 14.8644L42.8709 21.4105H42.8773C42.8773 21.3994 42.8741 21.3899 42.8709 21.3788C42.8028 21.0922 42.7363 20.8072 42.673 20.5237C42.5115 19.7985 42.3626 19.0828 42.2296 18.3781C42.1346 17.8841 42.0491 17.3932 41.9683 16.9102C41.8987 16.4969 41.8337 16.0868 41.7767 15.683C41.7102 15.2175 41.6501 14.7583 41.5978 14.3086L41.0658 12.1218C41.2004 12.4686 41.3381 12.8264 41.479 13.189C41.4616 12.9959 41.4442 12.8027 41.43 12.6142L40.6651 10.4797V10.4686Z" fill="white"/>
<path d="M16.5235 39.6807L7.43112 41.4352C7.43112 41.4352 4.28474 40.4218 2.9277 35.7742C1.60708 31.255 3.60385 28.2321 3.60385 28.2321L12.0691 25.1681L12.1942 25.575C12.1942 25.575 10.7168 28.6961 11.887 32.7941C13.2457 37.5572 16.4063 39.2959 16.4063 39.2959L16.5235 39.6791V39.6807Z" fill="#FFC727"/>
<path opacity="0.1" d="M12.0707 25.1713C12.0707 25.1713 10.0232 28.5536 11.7603 33.6207C13.4515 38.5548 16.5234 39.6823 16.5234 39.6823L16.4062 39.2991C16.4062 39.2991 13.2456 37.5604 11.887 32.7973C10.7358 28.761 12.1499 25.6764 12.1958 25.5798L12.0707 25.1713Z" fill="black"/>
<path opacity="0.1" d="M54.0741 43.9877L54.044 44.04C54.044 44.04 42.1552 38.4551 28.9696 38.3949C22.8162 38.3664 18.3302 38.9317 16.3224 39.2484C16.3762 39.2816 16.4047 39.2975 16.4047 39.2975L16.5219 39.6807L7.43112 41.4352C7.43112 41.4352 4.28474 40.4217 2.9277 35.7758C1.60708 31.2566 3.60385 28.2337 3.60385 28.2337C3.39641 29.9201 5.48027 33.608 8.3717 33.4338C10.5474 33.3024 11.4373 29.5021 11.4373 29.5021C11.4373 29.5021 18.4347 36.2303 32.9806 33.7996C37.7975 32.9936 43.137 29.8409 44.3832 27.0445C44.8883 28.7816 45.4394 30.4316 46.0237 31.977C46.171 32.3713 46.3198 32.7577 46.4734 33.1377C48.8454 39.0299 51.672 43.1406 54.0741 43.9877Z" fill="black"/>
<path d="M42.8725 2.32637C43.2035 1.94317 43.5867 1.68031 44.0221 1.55047C47.6531 0.464198 53.4217 9.07516 56.9101 20.7739C60.3985 32.4727 60.2813 42.8413 56.6551 43.9212C56.5839 43.9418 56.5174 43.9576 56.4445 43.9719C56.4224 43.9782 56.4002 43.9798 56.378 43.9814C55.0337 44.1983 53.4248 43.1801 51.7622 41.2404C49.4756 38.5691 47.0846 34.1543 45.1211 28.7895C44.6381 27.4784 44.1837 26.1087 43.7625 24.6914C43.1259 22.5474 42.6018 20.4477 42.2091 18.4414C40.6953 10.817 40.928 4.54958 42.8741 2.32637H42.8725Z" fill="#FFC727"/>
<path opacity="0.6" d="M42.8725 2.32637C43.2035 1.94317 43.5867 1.68031 44.0221 1.55047C47.6531 0.464198 53.4217 9.07516 56.9101 20.7739C60.3985 32.4727 60.2813 42.8413 56.6551 43.9212C56.5839 43.9418 56.5174 43.9576 56.4445 43.9719C56.4224 43.9782 56.4002 43.9798 56.378 43.9814C55.0337 44.1983 53.4248 43.1801 51.7622 41.2404C49.4756 38.5691 47.0846 34.1543 45.1211 28.7895C44.6381 27.4784 44.1837 26.1087 43.7625 24.6914C43.1259 22.5474 42.6018 20.4477 42.2091 18.4414C40.6953 10.817 40.928 4.54958 42.8741 2.32637H42.8725Z" fill="black"/>
<path opacity="0.2" d="M58.9528 29.8346L43.5677 24.0343C43.6294 24.2544 43.6928 24.4713 43.7593 24.6914C44.1821 26.1087 44.635 27.4768 45.1195 28.7895C47.083 34.1543 49.4757 38.5675 51.7622 41.2388C53.4248 43.1802 55.0352 44.1983 56.378 43.9814C56.4002 43.9798 56.4224 43.9782 56.4445 43.9719C56.5158 43.9576 56.5823 43.9418 56.6536 43.9212C59.2964 43.1342 60.0755 37.4115 58.9528 29.8362V29.8346Z" fill="black"/>
<g opacity="0.1">
<path d="M57.2933 22.1072L43.5709 24.0343L55.998 17.9347C56.3147 18.8563 56.6203 19.8032 56.9085 20.7723C57.0415 21.2189 57.1698 21.6654 57.2933 22.1072Z" fill="white"/>
<path d="M55.0289 15.3014L43.5709 24.0327L54.3164 13.5564C54.5586 14.1233 54.7977 14.706 55.0289 15.3014Z" fill="white"/>
</g>
<path d="M42.3943 19.3345C43.3095 18.5871 44.4718 18.1121 45.7386 18.0408C48.9673 17.8571 51.7305 20.3226 51.9126 23.5466C52.0963 26.7753 49.6308 29.5385 46.4021 29.7206C46.0284 29.7412 45.6626 29.7285 45.3063 29.681C44.8233 28.3699 44.3689 27.0001 43.9477 25.5829C43.3111 23.4389 42.787 21.3392 42.3943 19.3329V19.3345Z" fill="#FFC727"/>
<path d="M44.4908 0.560799C46.524 0.445204 48.847 2.25987 51.265 5.86704C53.7479 9.5708 56.0566 14.7725 57.7699 20.5158C59.4816 26.2575 60.3969 31.8757 60.3478 36.3379C60.294 41.2071 59.1048 44.1271 56.9117 44.7811C56.8214 44.8064 56.7406 44.827 56.6551 44.8444C56.5839 44.8618 56.5221 44.8697 56.4778 44.8729C54.8341 45.1231 53.021 44.0875 51.0797 41.8231C48.6633 38.9982 46.2469 34.4789 44.2771 29.0983C43.7941 27.7856 43.3302 26.3889 42.901 24.948C42.255 22.7707 41.7245 20.6409 41.3271 18.6156C39.7167 10.5098 40.0413 4.19964 42.1964 1.73732C42.6445 1.22111 43.1718 0.867994 43.7656 0.690644C44.0031 0.619387 44.2454 0.576633 44.4924 0.562382L44.4908 0.560799ZM56.2894 43.0852C56.3274 43.0772 56.3638 43.0677 56.4034 43.0566C57.686 42.675 58.511 40.0924 58.5521 36.3174C58.5996 32.0309 57.7113 26.6011 56.0487 21.0273C54.386 15.4518 52.1581 10.4227 49.7733 6.86463C47.6736 3.73092 45.5708 2.0176 44.2787 2.40714C44.0142 2.48631 43.7751 2.65099 43.5503 2.91068L43.5471 2.91385C42.1235 4.54008 41.43 9.916 43.0879 18.2625C43.4758 20.234 43.9905 22.3099 44.6223 24.4318C45.0403 25.8363 45.4916 27.1965 45.9635 28.4744C47.8352 33.5874 50.1961 38.0243 52.4447 40.6513C53.9046 42.3536 55.2854 43.2372 56.2355 43.0899L56.2894 43.082V43.0852Z" fill="#FFC727"/>
<path opacity="0.2" d="M44.4908 0.560799C46.524 0.445204 48.847 2.25987 51.265 5.86704C53.7479 9.5708 56.0566 14.7725 57.7699 20.5158C59.4816 26.2575 60.3969 31.8757 60.3478 36.3379C60.294 41.2071 59.1048 44.1271 56.9117 44.7811C56.8214 44.8064 56.7406 44.827 56.6551 44.8444C56.5839 44.8618 56.5221 44.8697 56.4778 44.8729C54.8341 45.1231 53.021 44.0875 51.0797 41.8231C48.6633 38.9982 46.2469 34.4789 44.2771 29.0983C43.7941 27.7856 43.3302 26.3889 42.901 24.948C42.255 22.7707 41.7245 20.6409 41.3271 18.6156C39.7167 10.5098 40.0413 4.19964 42.1964 1.73732C42.6445 1.22111 43.1718 0.867994 43.7656 0.690644C44.0031 0.619387 44.2454 0.576633 44.4924 0.562382L44.4908 0.560799ZM56.2894 43.0852C56.3274 43.0772 56.3638 43.0677 56.4034 43.0566C57.686 42.675 58.511 40.0924 58.5521 36.3174C58.5996 32.0309 57.7113 26.6011 56.0487 21.0273C54.386 15.4518 52.1581 10.4227 49.7733 6.86463C47.6736 3.73092 45.5708 2.0176 44.2787 2.40714C44.0142 2.48631 43.7751 2.65099 43.5503 2.91068L43.5471 2.91385C42.1235 4.54008 41.43 9.916 43.0879 18.2625C43.4758 20.234 43.9905 22.3099 44.6223 24.4318C45.0403 25.8363 45.4916 27.1965 45.9635 28.4744C47.8352 33.5874 50.1961 38.0243 52.4447 40.6513C53.9046 42.3536 55.2854 43.2372 56.2355 43.0899L56.2894 43.082V43.0852Z" fill="black"/>
</svg>
