<svg width="232" height="55" viewBox="0 0 232 55" fill="none" xmlns="http://www.w3.org/2000/svg">
<g clip-path="url(#clip0_850_5842)">
<path d="M60.7053 24.6238C60.6509 24.0385 60.4091 23.5836 59.9797 23.2591C59.5558 22.9292 58.9499 22.7642 58.1618 22.7642C57.6401 22.7642 57.2053 22.8307 56.8575 22.9638C56.5097 23.0968 56.2488 23.2803 56.0749 23.5144C55.901 23.7432 55.8113 24.0066 55.8059 24.3046C55.795 24.5493 55.8439 24.7648 55.9526 24.951C56.0667 25.1372 56.2298 25.3022 56.4417 25.4458C56.6591 25.5842 56.92 25.7066 57.2243 25.813C57.5287 25.9194 57.8711 26.0125 58.2515 26.0923L59.6863 26.4115C60.5123 26.5871 61.2406 26.8212 61.871 27.1139C62.5069 27.4065 63.0395 27.755 63.4688 28.1594C63.9036 28.5638 64.2324 29.0293 64.4552 29.5561C64.678 30.0828 64.7922 30.6734 64.7976 31.3278C64.7922 32.36 64.5259 33.2459 63.9987 33.9855C63.4715 34.7251 62.7134 35.2917 61.7243 35.6855C60.7406 36.0792 59.5531 36.2761 58.1618 36.2761C56.7651 36.2761 55.5477 36.0712 54.5097 35.6615C53.4717 35.2518 52.6646 34.6293 52.0885 33.794C51.5124 32.9586 51.2163 31.9025 51.2 30.6255H55.064C55.0966 31.1523 55.2407 31.5912 55.4961 31.9424C55.7515 32.2935 56.1021 32.5596 56.5477 32.7405C56.9988 32.9214 57.5205 33.0118 58.1129 33.0118C58.6564 33.0118 59.1183 32.94 59.4988 32.7963C59.8846 32.6527 60.1808 32.4532 60.3873 32.1978C60.5939 31.9424 60.6998 31.6497 60.7053 31.3199C60.6998 31.0113 60.602 30.7479 60.4118 30.5297C60.2216 30.3063 59.9281 30.1147 59.5314 29.9551C59.1401 29.7902 58.6401 29.6385 58.0314 29.5002L56.2868 29.1011C54.8412 28.7766 53.7026 28.2525 52.8711 27.5289C52.0396 26.8 51.6266 25.8156 51.632 24.5759C51.6266 23.565 51.9037 22.6791 52.4635 21.9182C53.0233 21.1574 53.7977 20.5641 54.7869 20.1385C55.776 19.7128 56.9037 19.5 58.17 19.5C59.4634 19.5 60.5857 19.7155 61.5368 20.1465C62.4933 20.5721 63.2351 21.1707 63.7623 21.9422C64.2895 22.7137 64.5585 23.6076 64.5693 24.6238H60.7053Z" fill="#4B4EFC"/>
<path d="M72.6807 36.3C71.36 36.3 70.2269 36.034 69.2812 35.5019C68.341 34.9698 67.6182 34.2303 67.1128 33.2832C66.6074 32.3308 66.3546 31.2294 66.3546 29.979C66.3546 28.7234 66.6074 27.622 67.1128 26.6749C67.6236 25.7225 68.3492 24.9803 69.2894 24.4482C70.235 23.9162 71.3627 23.6501 72.6725 23.6501C73.8301 23.6501 74.8382 23.855 75.6969 24.2647C76.561 24.6743 77.2349 25.2543 77.7186 26.0045C78.2078 26.7494 78.4659 27.6247 78.4931 28.6303H74.7676C74.6915 28.0024 74.4741 27.5103 74.1154 27.1538C73.7622 26.7973 73.3002 26.619 72.7296 26.619C72.2676 26.619 71.8627 26.7467 71.5149 27.0021C71.1671 27.2522 70.8953 27.6247 70.6997 28.1195C70.5095 28.609 70.4144 29.2155 70.4144 29.9391C70.4144 30.6628 70.5095 31.2746 70.6997 31.7748C70.8953 32.2696 71.1671 32.6447 71.5149 32.9001C71.8627 33.1502 72.2676 33.2752 72.7296 33.2752C73.0991 33.2752 73.4252 33.1981 73.7078 33.0438C73.9958 32.8895 74.2323 32.6633 74.417 32.3654C74.6018 32.0621 74.7187 31.695 74.7676 31.264H78.4931C78.455 32.2749 78.1969 33.1581 77.7186 33.9137C77.2458 34.6692 76.5801 35.2571 75.7214 35.6775C74.8681 36.0925 73.8545 36.3 72.6807 36.3Z" fill="#4B4EFC"/>
<path d="M84.5195 29.0772V36.0685H80.5331V19.7235H84.3891V26.0604H84.5276C84.8102 25.3048 85.2722 24.7143 85.9135 24.2886C86.5602 23.8629 87.351 23.6501 88.2857 23.6501C89.1662 23.6501 89.9325 23.8417 90.5846 24.2248C91.2368 24.6025 91.7422 25.1372 92.1009 25.8289C92.465 26.5206 92.6444 27.3294 92.639 28.2552V36.0685H88.6526V29.0213C88.658 28.3403 88.4841 27.8082 88.1309 27.4251C87.7776 27.042 87.2803 26.8505 86.639 26.8505C86.2206 26.8505 85.851 26.9409 85.5303 27.1219C85.2151 27.2974 84.9679 27.5502 84.7885 27.88C84.6146 28.2099 84.5249 28.609 84.5195 29.0772Z" fill="#4B4EFC"/>
<path d="M100.972 36.3C99.6572 36.3 98.5268 36.0366 97.5811 35.5099C96.6409 34.9778 95.9154 34.2382 95.4045 33.2912C94.8991 32.3388 94.6464 31.2347 94.6464 29.979C94.6464 28.7181 94.8991 27.614 95.4045 26.6669C95.9154 25.7145 96.6409 24.975 97.5811 24.4482C98.5268 23.9162 99.6572 23.6501 100.972 23.6501C102.288 23.6501 103.415 23.9162 104.356 24.4482C105.301 24.975 106.027 25.7145 106.532 26.6669C107.043 27.614 107.298 28.7181 107.298 29.979C107.298 31.2347 107.043 32.3388 106.532 33.2912C106.027 34.2382 105.301 34.9778 104.356 35.5099C103.415 36.0366 102.288 36.3 100.972 36.3ZM100.997 33.355C101.475 33.355 101.88 33.2114 102.212 32.924C102.543 32.6367 102.796 32.2377 102.97 31.7269C103.149 31.2161 103.239 30.6255 103.239 29.9551C103.239 29.2741 103.149 28.6781 102.97 28.1674C102.796 27.6566 102.543 27.2575 102.212 26.9702C101.88 26.6829 101.475 26.5392 100.997 26.5392C100.502 26.5392 100.084 26.6829 99.7414 26.9702C99.4045 27.2575 99.1463 27.6566 98.967 28.1674C98.7931 28.6781 98.7061 29.2741 98.7061 29.9551C98.7061 30.6255 98.7931 31.2161 98.967 31.7269C99.1463 32.2377 99.4045 32.6367 99.7414 32.924C100.084 33.2114 100.502 33.355 100.997 33.355Z" fill="#4B4EFC"/>
<path d="M115.186 36.3C113.87 36.3 112.74 36.0366 111.794 35.5099C110.854 34.9778 110.129 34.2382 109.618 33.2912C109.112 32.3388 108.86 31.2347 108.86 29.979C108.86 28.7181 109.112 27.614 109.618 26.6669C110.129 25.7145 110.854 24.975 111.794 24.4482C112.74 23.9162 113.87 23.6501 115.186 23.6501C116.501 23.6501 117.628 23.9162 118.569 24.4482C119.514 24.975 120.24 25.7145 120.745 26.6669C121.256 27.614 121.512 28.7181 121.512 29.979C121.512 31.2347 121.256 32.3388 120.745 33.2912C120.24 34.2382 119.514 34.9778 118.569 35.5099C117.628 36.0366 116.501 36.3 115.186 36.3ZM115.21 33.355C115.688 33.355 116.093 33.2114 116.425 32.924C116.756 32.6367 117.009 32.2377 117.183 31.7269C117.362 31.2161 117.452 30.6255 117.452 29.9551C117.452 29.2741 117.362 28.6781 117.183 28.1674C117.009 27.6566 116.756 27.2575 116.425 26.9702C116.093 26.6829 115.688 26.5392 115.21 26.5392C114.715 26.5392 114.297 26.6829 113.955 26.9702C113.618 27.2575 113.359 27.6566 113.18 28.1674C113.006 28.6781 112.919 29.2741 112.919 29.9551C112.919 30.6255 113.006 31.2161 113.18 31.7269C113.359 32.2377 113.618 32.6367 113.955 32.924C114.297 33.2114 114.715 33.355 115.21 33.355Z" fill="#4B4EFC"/>
<path d="M123.554 36.0685V19.7235H127.589V32.8602H134.534V36.0685H123.554Z" fill="#4B4EFC"/>
<path d="M140.153 36.2761C139.354 36.2761 138.645 36.1457 138.026 35.885C137.411 35.619 136.925 35.2199 136.566 34.6878C136.213 34.1504 136.036 33.4774 136.036 32.6686C136.036 31.9876 136.159 31.413 136.403 30.9447C136.648 30.4765 136.985 30.0961 137.414 29.8035C137.844 29.5108 138.338 29.29 138.898 29.141C139.458 28.9867 140.055 28.883 140.691 28.8298C141.403 28.7659 141.977 28.6994 142.411 28.6303C142.846 28.5558 143.161 28.452 143.357 28.319C143.558 28.1807 143.659 27.9865 143.659 27.7364V27.6965C143.659 27.2868 143.515 26.9702 143.227 26.7467C142.939 26.5233 142.55 26.4115 142.061 26.4115C141.534 26.4115 141.11 26.5233 140.789 26.7467C140.468 26.9702 140.265 27.2788 140.178 27.6725L136.501 27.5448C136.61 26.8 136.89 26.1349 137.341 25.5496C137.797 24.959 138.422 24.4961 139.216 24.1609C140.015 23.8204 140.974 23.6501 142.093 23.6501C142.892 23.6501 143.629 23.7432 144.303 23.9295C144.977 24.1104 145.564 24.3764 146.064 24.7276C146.564 25.0734 146.949 25.499 147.221 26.0045C147.498 26.51 147.637 27.0873 147.637 27.7364V36.0685H143.887V34.3606H143.789C143.566 34.7756 143.281 35.1268 142.933 35.4141C142.591 35.7014 142.186 35.9169 141.718 36.0606C141.257 36.2042 140.735 36.2761 140.153 36.2761ZM141.384 33.7221C141.814 33.7221 142.199 33.637 142.542 33.4667C142.89 33.2965 143.167 33.0624 143.373 32.7644C143.58 32.4611 143.683 32.11 143.683 31.7109V30.5457C143.569 30.6042 143.43 30.6574 143.267 30.7053C143.11 30.7532 142.936 30.7984 142.746 30.841C142.555 30.8836 142.36 30.9208 142.159 30.9527C141.958 30.9847 141.765 31.0139 141.58 31.0405C141.205 31.099 140.884 31.1895 140.618 31.3119C140.357 31.4342 140.156 31.5939 140.015 31.7907C139.879 31.9823 139.811 32.2111 139.811 32.4771C139.811 32.8815 139.958 33.1901 140.251 33.4029C140.55 33.6157 140.928 33.7221 141.384 33.7221Z" fill="#4B4EFC"/>
<path d="M150.074 36.0685V19.7235H154.061V25.9087H154.142C154.305 25.5363 154.536 25.1771 154.835 24.8313C155.139 24.4855 155.525 24.2035 155.993 23.9853C156.466 23.7619 157.031 23.6501 157.688 23.6501C158.558 23.6501 159.37 23.8736 160.126 24.3205C160.887 24.7675 161.501 25.4565 161.968 26.3876C162.436 27.3187 162.669 28.5052 162.669 29.9471C162.669 31.3358 162.444 32.4984 161.993 33.4348C161.547 34.3713 160.944 35.0736 160.183 35.5418C159.427 36.01 158.588 36.2441 157.664 36.2441C157.033 36.2441 156.487 36.143 156.025 35.9409C155.563 35.7387 155.175 35.4726 154.86 35.1428C154.55 34.8129 154.311 34.459 154.142 34.0813H154.02V36.0685H150.074ZM153.979 29.9391C153.979 30.5989 154.069 31.1735 154.248 31.663C154.433 32.1525 154.697 32.533 155.039 32.8043C155.387 33.0704 155.803 33.2034 156.286 33.2034C156.775 33.2034 157.191 33.0704 157.533 32.8043C157.876 32.533 158.134 32.1525 158.308 31.663C158.487 31.1735 158.577 30.5989 158.577 29.9391C158.577 29.2794 158.487 28.7074 158.308 28.2232C158.134 27.739 157.876 27.3639 157.533 27.0979C157.197 26.8319 156.781 26.6989 156.286 26.6989C155.797 26.6989 155.381 26.8292 155.039 27.0899C154.697 27.3506 154.433 27.7231 154.248 28.2073C154.069 28.6914 153.979 29.2687 153.979 29.9391Z" fill="#4B4EFC"/>
<path d="M175.69 27.5528L172.03 27.6486C171.992 27.3932 171.889 27.1671 171.72 26.9702C171.552 26.768 171.332 26.6111 171.06 26.4993C170.793 26.3823 170.484 26.3238 170.13 26.3238C169.669 26.3238 169.275 26.4142 168.948 26.5951C168.628 26.776 168.47 27.0208 168.476 27.3294C168.47 27.5688 168.568 27.7763 168.769 27.9519C168.976 28.1275 169.342 28.2685 169.87 28.3749L172.283 28.8218C173.533 29.0559 174.462 29.4443 175.071 29.987C175.685 30.5297 175.995 31.248 176 32.1419C175.995 32.9826 175.739 33.7142 175.234 34.3367C174.734 34.9592 174.049 35.4434 173.179 35.7892C172.31 36.1297 171.315 36.3 170.196 36.3C168.408 36.3 166.997 35.9409 165.965 35.2226C164.938 34.499 164.351 33.5306 164.204 32.3175L168.141 32.2217C168.228 32.6686 168.454 33.0092 168.818 33.2433C169.182 33.4774 169.647 33.5944 170.212 33.5944C170.723 33.5944 171.139 33.5013 171.459 33.3151C171.78 33.1289 171.943 32.8815 171.948 32.5729C171.943 32.2962 171.818 32.0754 171.573 31.9104C171.329 31.7402 170.946 31.6072 170.424 31.5114L168.239 31.1044C166.984 30.8809 166.049 30.4685 165.435 29.8673C164.821 29.2608 164.516 28.4893 164.522 27.5528C164.516 26.7334 164.739 26.0338 165.19 25.4538C165.641 24.8686 166.283 24.4216 167.114 24.113C167.946 23.8044 168.927 23.6501 170.057 23.6501C171.753 23.6501 173.09 23.9986 174.068 24.6956C175.046 25.3873 175.587 26.3397 175.69 27.5528Z" fill="#4B4EFC"/>
<path d="M47.4539 28.8425L33.5985 42.9442C33.2485 43.3001 32.7741 43.5 32.2794 43.5C31.7847 43.5 31.3102 43.3001 30.9603 42.9442L26.9507 38.8632C26.601 38.5071 26.4045 38.0242 26.4045 37.5207C26.4045 37.0172 26.601 36.5344 26.9507 36.1782L34.1583 28.8425C34.508 28.4864 34.7044 28.0035 34.7044 27.5C34.7044 26.9965 34.508 26.5136 34.1583 26.1575L26.9507 18.8218C26.601 18.4656 26.4045 17.9828 26.4045 17.4793C26.4045 16.9758 26.601 16.4929 26.9507 16.1368L30.9603 12.0558C31.3102 11.6999 31.7847 11.5 32.2794 11.5C32.7741 11.5 33.2485 11.6999 33.5985 12.0558L47.4539 26.1575C47.8035 26.5136 48 26.9965 48 27.5C48 28.0035 47.8035 28.4864 47.4539 28.8425Z" fill="#4B4EFC"/>
<path d="M24 19.1423L17.0397 12.0558C16.6897 11.6999 16.2153 11.5 15.7206 11.5C15.2259 11.5 14.7514 11.6999 14.4015 12.0558L14.0866 12.3763L0.54612 26.1575C0.196433 26.5136 0 26.9965 0 27.5C0 28.0035 0.196433 28.4864 0.54612 28.8425L14.4015 42.9442C14.7514 43.3001 15.2259 43.5 15.7206 43.5C16.2153 43.5 16.6897 43.3001 17.0397 42.9442L31.5528 28.173C31.6396 28.0848 31.7084 27.9801 31.7554 27.8648C31.8023 27.7495 31.8265 27.626 31.8265 27.5012C31.8265 27.3764 31.8023 27.2528 31.7554 27.1375C31.7084 27.0223 31.6396 26.9175 31.5528 26.8293L24 19.1423ZM21.7188 34.8678L16.3795 40.2924C16.2929 40.3807 16.19 40.4507 16.0767 40.4985C15.9634 40.5463 15.842 40.5709 15.7194 40.5709C15.5968 40.5709 15.4754 40.5463 15.3621 40.4985C15.2489 40.4507 15.146 40.3807 15.0593 40.2924L3.15159 28.1707C3.06484 28.0825 2.99602 27.9777 2.94907 27.8625C2.90211 27.7472 2.87795 27.6236 2.87795 27.4988C2.87795 27.374 2.90211 27.2505 2.94907 27.1352C2.99602 27.0199 3.06484 26.9152 3.15159 26.827L15.0593 14.7076C15.146 14.6193 15.2489 14.5493 15.3621 14.5015C15.4754 14.4537 15.5968 14.4291 15.7194 14.4291C15.842 14.4291 15.9634 14.4537 16.0767 14.5015C16.19 14.5493 16.2929 14.6193 16.3795 14.7076L21.7188 20.1322C21.8925 20.3102 21.9901 20.5508 21.9901 20.8017C21.9901 21.0526 21.8925 21.2933 21.7188 21.4712L17.1073 26.1575C16.7576 26.5136 16.5612 26.9965 16.5612 27.5C16.5612 28.0035 16.7576 28.4864 17.1073 28.8425L21.7188 33.5264C21.8933 33.7045 21.9912 33.9457 21.9912 34.1971C21.9912 34.4486 21.8933 34.6897 21.7188 34.8678Z" fill="#4B4EFC"/>
</g>
<defs>
<clipPath id="clip0_850_5842">
<rect width="176" height="32" fill="white" transform="translate(0 11.5)"/>
</clipPath>
</defs>
</svg>
