<svg width="220" height="40" viewBox="0 0 220 40" fill="none" xmlns="http://www.w3.org/2000/svg">
<rect width="220" height="40" fill="#222628"/>
<rect width="1440" height="900" transform="translate(-597 -62)" fill="#FFFF"/>
<g clip-path="url(#clip0_0_1)">
<path d="M76.0367 16.3302C75.9691 15.6019 75.6682 15.0359 75.1339 14.632C74.6065 14.2215 73.8524 14.0163 72.8719 14.0163C72.2227 14.0163 71.6817 14.0991 71.2489 14.2646C70.8161 14.4301 70.4915 14.6585 70.2751 14.9498C70.0587 15.2345 69.9471 15.5622 69.9403 15.933C69.9268 16.2375 69.9877 16.5056 70.1229 16.7374C70.2649 16.9691 70.4678 17.1743 70.7315 17.3531C71.002 17.5252 71.3266 17.6775 71.7054 17.8099C72.0841 17.9423 72.5101 18.0582 72.9835 18.1575L74.7688 18.5547C75.7967 18.7732 76.7028 19.0645 77.4873 19.4286C78.2785 19.7928 78.9412 20.2264 79.4755 20.7296C80.0165 21.2328 80.4256 21.8121 80.7029 22.4675C80.9801 23.1229 81.1221 23.8578 81.1289 24.6722C81.1221 25.9566 80.7908 27.0589 80.1348 27.9792C79.4789 28.8994 78.5355 29.6045 77.3047 30.0944C76.0807 30.5844 74.6031 30.8293 72.8719 30.8293C71.1339 30.8293 69.6191 30.5744 68.3275 30.0646C67.0358 29.5549 66.0316 28.7802 65.3148 27.7408C64.598 26.7014 64.2294 25.3872 64.2091 23.7982H69.0173C69.0578 24.4537 69.237 24.9999 69.5549 25.4368C69.8727 25.8738 70.3089 26.2048 70.8634 26.4299C71.4247 26.655 72.0739 26.7676 72.811 26.7676C73.4873 26.7676 74.0621 26.6782 74.5355 26.4994C75.0156 26.3207 75.3842 26.0724 75.6411 25.7546C75.8981 25.4368 76.03 25.0727 76.0367 24.6622C76.03 24.2782 75.9083 23.9505 75.6716 23.6791C75.4349 23.401 75.0697 23.1627 74.576 22.964C74.0891 22.7588 73.467 22.5701 72.7096 22.398L70.5388 21.9014C68.74 21.4976 67.3232 20.8455 66.2886 19.9451C65.2539 19.038 64.74 17.8132 64.7467 16.2706C64.74 15.0127 65.0849 13.9104 65.7814 12.9636C66.4779 12.0169 67.4416 11.2787 68.6724 10.749C69.9031 10.2194 71.3064 9.95456 72.882 9.95456C74.4915 9.95456 75.888 10.2227 77.0714 10.759C78.2616 11.2886 79.1847 12.0334 79.8407 12.9934C80.4966 13.9534 80.8314 15.0657 80.8449 16.3302H76.0367Z" fill="#4B4EFC"/>
<path d="M90.9379 30.8591C89.2946 30.8591 87.8847 30.5281 86.708 29.866C85.5381 29.204 84.6387 28.2837 84.0097 27.1052C83.3808 25.9201 83.0664 24.5497 83.0664 22.9938C83.0664 21.4314 83.3808 20.0609 84.0097 18.8824C84.6454 17.6974 85.5482 16.7738 86.7181 16.1117C87.8948 15.4497 89.298 15.1186 90.9278 15.1186C92.3682 15.1186 93.6226 15.3735 94.6911 15.8833C95.7664 16.3931 96.6049 17.1147 97.2068 18.0482C97.8154 18.9751 98.1366 20.0642 98.1704 21.3155H93.5347C93.4401 20.5343 93.1696 19.9219 92.7232 19.4783C92.2837 19.0347 91.7089 18.8129 90.9988 18.8129C90.424 18.8129 89.9202 18.9718 89.4874 19.2896C89.0546 19.6008 88.7164 20.0642 88.473 20.6799C88.2363 21.289 88.118 22.0438 88.118 22.9442C88.118 23.8446 88.2363 24.606 88.473 25.2283C88.7164 25.844 89.0546 26.3108 89.4874 26.6286C89.9202 26.9397 90.424 27.0953 90.9988 27.0953C91.4586 27.0953 91.8644 26.9993 92.216 26.8073C92.5745 26.6153 92.8686 26.3339 93.0986 25.9632C93.3285 25.5858 93.4739 25.129 93.5347 24.5927H98.1704C98.1231 25.8506 97.8019 26.9496 97.2068 27.8898C96.6184 28.8299 95.79 29.5615 94.7216 30.0845C93.6598 30.6009 92.3986 30.8591 90.9379 30.8591Z" fill="#4B4EFC"/>
<path d="M105.669 21.8716V30.5711H100.709V10.2326H105.507V18.1178H105.679C106.031 17.1776 106.606 16.4428 107.404 15.9131C108.209 15.3835 109.192 15.1186 110.356 15.1186C111.451 15.1186 112.405 15.357 113.216 15.8337C114.028 16.3037 114.657 16.9691 115.103 17.8298C115.556 18.6904 115.779 19.6968 115.772 20.8488V30.5711H110.812V21.8021C110.819 20.9547 110.602 20.2926 110.163 19.8159C109.723 19.3393 109.105 19.1009 108.307 19.1009C107.786 19.1009 107.326 19.2135 106.927 19.4386C106.535 19.6571 106.227 19.9715 106.004 20.382C105.788 20.7925 105.676 21.289 105.669 21.8716Z" fill="#4B4EFC"/>
<path d="M126.142 30.8591C124.505 30.8591 123.099 30.5314 121.922 29.876C120.752 29.2139 119.849 28.2936 119.214 27.1152C118.585 25.9301 118.27 24.5563 118.27 22.9938C118.27 21.4248 118.585 20.051 119.214 18.8725C119.849 17.6874 120.752 16.7672 121.922 16.1117C123.099 15.4497 124.505 15.1186 126.142 15.1186C127.778 15.1186 129.182 15.4497 130.352 16.1117C131.528 16.7672 132.431 17.6874 133.06 18.8725C133.696 20.051 134.013 21.4248 134.013 22.9938C134.013 24.5563 133.696 25.9301 133.06 27.1152C132.431 28.2936 131.528 29.2139 130.352 29.876C129.182 30.5314 127.778 30.8591 126.142 30.8591ZM126.172 27.1946C126.767 27.1946 127.271 27.0159 127.684 26.6583C128.096 26.3008 128.411 25.8043 128.627 25.1687C128.85 24.5331 128.962 23.7982 128.962 22.964C128.962 22.1166 128.85 21.3751 128.627 20.7395C128.411 20.1039 128.096 19.6074 127.684 19.2499C127.271 18.8924 126.767 18.7136 126.172 18.7136C125.557 18.7136 125.036 18.8924 124.61 19.2499C124.191 19.6074 123.87 20.1039 123.647 20.7395C123.43 21.3751 123.322 22.1166 123.322 22.964C123.322 23.7982 123.43 24.5331 123.647 25.1687C123.87 25.8043 124.191 26.3008 124.61 26.6583C125.036 27.0159 125.557 27.1946 126.172 27.1946Z" fill="#4B4EFC"/>
<path d="M143.828 30.8591C142.191 30.8591 140.784 30.5314 139.608 29.876C138.438 29.2139 137.535 28.2936 136.899 27.1152C136.27 25.9301 135.956 24.5563 135.956 22.9938C135.956 21.4248 136.27 20.051 136.899 18.8725C137.535 17.6874 138.438 16.7672 139.608 16.1117C140.784 15.4497 142.191 15.1186 143.828 15.1186C145.464 15.1186 146.867 15.4497 148.037 16.1117C149.214 16.7672 150.117 17.6874 150.746 18.8725C151.381 20.051 151.699 21.4248 151.699 22.9938C151.699 24.5563 151.381 25.9301 150.746 27.1152C150.117 28.2936 149.214 29.2139 148.037 29.876C146.867 30.5314 145.464 30.8591 143.828 30.8591ZM143.858 27.1946C144.453 27.1946 144.957 27.0159 145.369 26.6583C145.782 26.3008 146.096 25.8043 146.313 25.1687C146.536 24.5331 146.647 23.7982 146.647 22.964C146.647 22.1166 146.536 21.3751 146.313 20.7395C146.096 20.1039 145.782 19.6074 145.369 19.2499C144.957 18.8924 144.453 18.7136 143.858 18.7136C143.243 18.7136 142.722 18.8924 142.296 19.2499C141.877 19.6074 141.555 20.1039 141.332 20.7395C141.116 21.3751 141.008 22.1166 141.008 22.964C141.008 23.7982 141.116 24.5331 141.332 25.1687C141.555 25.8043 141.877 26.3008 142.296 26.6583C142.722 27.0159 143.243 27.1946 143.858 27.1946Z" fill="#4B4EFC"/>
<path d="M154.24 30.5711V10.2326H159.261V26.5789H167.904V30.5711H154.24Z" fill="#4B4EFC"/>
<path d="M174.895 30.8293C173.901 30.8293 173.019 30.6671 172.248 30.3427C171.484 30.0117 170.878 29.5151 170.432 28.8531C169.993 28.1844 169.773 27.3469 169.773 26.3406C169.773 25.4931 169.925 24.7781 170.229 24.1955C170.534 23.6129 170.953 23.1395 171.487 22.7754C172.021 22.4112 172.637 22.1365 173.333 21.9511C174.03 21.7591 174.774 21.63 175.565 21.5638C176.451 21.4843 177.164 21.4016 177.705 21.3155C178.246 21.2228 178.638 21.0937 178.882 20.9282C179.132 20.7561 179.257 20.5144 179.257 20.2033V20.1536C179.257 19.6438 179.078 19.2499 178.72 18.9718C178.361 18.6938 177.878 18.5547 177.269 18.5547C176.613 18.5547 176.086 18.6938 175.687 18.9718C175.288 19.2499 175.034 19.6339 174.926 20.1238L170.351 19.9649C170.486 19.038 170.834 18.2105 171.396 17.4822C171.964 16.7473 172.741 16.1713 173.729 15.7542C174.723 15.3305 175.916 15.1186 177.31 15.1186C178.304 15.1186 179.22 15.2345 180.059 15.4662C180.897 15.6913 181.627 16.0223 182.25 16.4593C182.872 16.8896 183.352 17.4193 183.69 18.0482C184.035 18.6772 184.207 19.3955 184.207 20.2033V30.5711H179.541V28.4459H179.419C179.142 28.9623 178.787 29.3993 178.354 29.7568C177.928 30.1143 177.425 30.3824 176.843 30.5612C176.268 30.7399 175.619 30.8293 174.895 30.8293ZM176.427 27.6514C176.961 27.6514 177.441 27.5455 177.867 27.3336C178.3 27.1218 178.645 26.8305 178.902 26.4597C179.159 26.0824 179.288 25.6454 179.288 25.1488V23.6989C179.146 23.7718 178.973 23.838 178.77 23.8976C178.574 23.9571 178.358 24.0134 178.121 24.0664C177.884 24.1193 177.641 24.1657 177.391 24.2054C177.141 24.2451 176.9 24.2815 176.671 24.3147C176.204 24.3875 175.805 24.5 175.474 24.6523C175.149 24.8046 174.899 25.0032 174.723 25.2482C174.554 25.4865 174.469 25.7712 174.469 26.1022C174.469 26.6054 174.652 26.9894 175.017 27.2542C175.389 27.519 175.859 27.6514 176.427 27.6514Z" fill="#4B4EFC"/>
<path d="M187.24 30.5711V10.2326H192.201V17.9291H192.302C192.505 17.4656 192.792 17.0187 193.164 16.5884C193.543 16.1581 194.023 15.8072 194.605 15.5357C195.193 15.2577 195.896 15.1186 196.715 15.1186C197.797 15.1186 198.808 15.3967 199.748 15.9528C200.694 16.509 201.458 17.3663 202.04 18.5249C202.622 19.6835 202.912 21.1599 202.912 22.9541C202.912 24.6821 202.632 26.1287 202.071 27.2939C201.516 28.4591 200.765 29.3331 199.819 29.9157C198.879 30.4983 197.834 30.7896 196.684 30.7896C195.9 30.7896 195.22 30.6638 194.645 30.4122C194.07 30.1606 193.587 29.8296 193.195 29.4191C192.809 29.0087 192.512 28.5684 192.302 28.0983H192.15V30.5711H187.24ZM192.099 22.9442C192.099 23.7651 192.211 24.4802 192.434 25.0893C192.664 25.6984 192.992 26.1717 193.418 26.5094C193.851 26.8404 194.368 27.0059 194.97 27.0059C195.578 27.0059 196.096 26.8404 196.522 26.5094C196.948 26.1717 197.269 25.6984 197.486 25.0893C197.709 24.4802 197.82 23.7651 197.82 22.9442C197.82 22.1232 197.709 21.4115 197.486 20.809C197.269 20.2066 196.948 19.7398 196.522 19.4088C196.103 19.0778 195.585 18.9122 194.97 18.9122C194.361 18.9122 193.844 19.0744 193.418 19.3989C192.992 19.7233 192.664 20.1867 192.434 20.7892C192.211 21.3917 192.099 22.11 192.099 22.9442Z" fill="#4B4EFC"/>
<path d="M219.115 19.9748L214.56 20.094C214.513 19.7762 214.384 19.4948 214.175 19.2499C213.965 18.9983 213.691 18.803 213.353 18.664C213.022 18.5183 212.636 18.4455 212.197 18.4455C211.622 18.4455 211.131 18.558 210.726 18.7831C210.327 19.0082 210.131 19.3128 210.137 19.6968C210.131 19.9947 210.252 20.2529 210.503 20.4714C210.759 20.6899 211.216 20.8653 211.872 20.9977L214.874 21.5539C216.43 21.8452 217.586 22.3285 218.344 23.0038C219.108 23.6791 219.493 24.5729 219.5 25.6851C219.493 26.7312 219.175 27.6415 218.547 28.4161C217.924 29.1907 217.072 29.7932 215.99 30.2235C214.908 30.6473 213.671 30.8591 212.278 30.8591C210.053 30.8591 208.298 30.4122 207.013 29.5184C205.735 28.618 205.005 27.4131 204.822 25.9036L209.721 25.7844C209.83 26.3406 210.11 26.7643 210.563 27.0556C211.016 27.3469 211.595 27.4925 212.298 27.4925C212.934 27.4925 213.451 27.3767 213.85 27.145C214.249 26.9132 214.452 26.6054 214.459 26.2214C214.452 25.8771 214.296 25.6024 213.992 25.3971C213.688 25.1853 213.211 25.0197 212.562 24.9006L209.843 24.3941C208.281 24.116 207.118 23.6029 206.354 22.8548C205.59 22.1001 205.211 21.1401 205.218 19.9748C205.211 18.9553 205.488 18.0847 206.049 17.363C206.611 16.6347 207.409 16.0786 208.443 15.6946C209.478 15.3106 210.699 15.1186 212.105 15.1186C214.215 15.1186 215.879 15.5523 217.096 16.4196C218.313 17.2803 218.986 18.4653 219.115 19.9748Z" fill="#4B4EFC"/>
<path d="M59.5478 21.5796L42.3072 39.1266C41.8718 39.5694 41.2815 39.8182 40.6659 39.8182C40.0503 39.8182 39.46 39.5694 39.0246 39.1266L34.0353 34.0486C33.6001 33.6055 33.3557 33.0046 33.3557 32.3781C33.3557 31.7516 33.6001 31.1507 34.0353 30.7076L43.0038 21.5796C43.4389 21.1365 43.6834 20.5356 43.6834 19.9091C43.6834 19.2826 43.4389 18.6817 43.0038 18.2386L34.0353 9.11063C33.6001 8.66748 33.3557 8.06662 33.3557 7.44012C33.3557 6.81362 33.6001 6.21276 34.0353 5.76961L39.0246 0.691626C39.46 0.24877 40.0503 0 40.6659 0C41.2815 0 41.8718 0.24877 42.3072 0.691626L59.5478 18.2386C59.9829 18.6817 60.2273 19.2826 60.2273 19.9091C60.2273 20.5356 59.9829 21.1365 59.5478 21.5796Z" fill="#4B4EFC"/>
<path d="M30.3636 9.50942L21.7027 0.691626C21.2673 0.24877 20.677 0 20.0614 0C19.4459 0 18.8555 0.24877 18.4201 0.691626L18.0282 1.09042L1.17955 18.2386C0.744425 18.6817 0.5 19.2826 0.5 19.9091C0.5 20.5356 0.744425 21.1365 1.17955 21.5796L18.4201 39.1266C18.8555 39.5694 19.4459 39.8182 20.0614 39.8182C20.677 39.8182 21.2673 39.5694 21.7027 39.1266L39.7618 20.7466C39.8697 20.6368 39.9554 20.5065 40.0138 20.3631C40.0722 20.2196 40.1023 20.0659 40.1023 19.9106C40.1023 19.7553 40.0722 19.6015 40.0138 19.4581C39.9554 19.3147 39.8697 19.1843 39.7618 19.0746L30.3636 9.50942ZM27.5251 29.077L20.8814 35.8269C20.7735 35.9368 20.6455 36.0239 20.5045 36.0834C20.3636 36.1429 20.2125 36.1735 20.06 36.1735C19.9074 36.1735 19.7563 36.1429 19.6154 36.0834C19.4744 36.0239 19.3464 35.9368 19.2386 35.8269L4.42158 20.7436C4.31364 20.6339 4.228 20.5036 4.16958 20.3601C4.11115 20.2167 4.08108 20.0629 4.08108 19.9076C4.08108 19.7523 4.11115 19.5986 4.16958 19.4551C4.228 19.3117 4.31364 19.1814 4.42158 19.0716L19.2386 3.99128C19.3464 3.88142 19.4744 3.79427 19.6154 3.7348C19.7563 3.67534 19.9074 3.64473 20.06 3.64473C20.2125 3.64473 20.3636 3.67534 20.5045 3.7348C20.6455 3.79427 20.7735 3.88142 20.8814 3.99128L27.5251 10.7413C27.7413 10.9626 27.8627 11.2621 27.8627 11.5743C27.8627 11.8865 27.7413 12.1859 27.5251 12.4073L21.7869 18.2386C21.3518 18.6817 21.1074 19.2826 21.1074 19.9091C21.1074 20.5356 21.3518 21.1365 21.7869 21.5796L27.5251 27.4079C27.7422 27.6294 27.8641 27.9296 27.8641 28.2424C27.8641 28.5553 27.7422 28.8554 27.5251 29.077Z" fill="#4B4EFC"/>
</g>
<defs>
<clipPath id="clip0_0_1">
<rect width="219" height="39.8182" fill="white" transform="translate(0.5)"/>
</clipPath>
</defs>
</svg>
